<svg xmlns="http://www.w3.org/2000/svg" width="540" height="500" viewBox="0 0 540 500" role="img" aria-labelledby="title desc">
<title id="title">Bias Correction Regression Results</title>
<desc id="desc">Next-day maximum temperature model comparison</desc>
<rect width="100%" height="100%" fill="#ffffff"/>
<text x="40" y="46" font-family="Inter, Segoe UI, Arial, sans-serif" font-size="24" font-weight="700" fill="#1f2933">Bias Correction Regression Results</text>
<text x="40" y="73" font-family="Inter, Segoe UI, Arial, sans-serif" font-size="13" fill="#52616b">Next-day maximum temperature model comparison</text>
<text x="40" y="140" font-family="Inter, Segoe UI, Arial, sans-serif" font-size="14" font-weight="700" fill="#1f2933">Linear Regression</text>
<text x="198" y="134" text-anchor="end" font-family="Inter, Segoe UI, Arial, sans-serif" font-size="11" fill="#52616b">R2</text>
<rect x="210" y="122" width="250" height="16" rx="3" fill="#eef2f7"/>
<rect x="210" y="122" width="186.0" height="16" rx="3" fill="#315f72"/>
<text x="474" y="135" font-family="Inter, Segoe UI, Arial, sans-serif" font-size="12" font-weight="700" fill="#1f2933">0.744</text>
<text x="198" y="161" text-anchor="end" font-family="Inter, Segoe UI, Arial, sans-serif" font-size="11" fill="#52616b">RMSE</text>
<rect x="210" y="149" width="250" height="16" rx="3" fill="#eef2f7"/>
<rect x="210" y="149" width="250.0" height="16" rx="3" fill="#a84f4f"/>
<text x="474" y="162" font-family="Inter, Segoe UI, Arial, sans-serif" font-size="12" font-weight="700" fill="#1f2933">1.533</text>
<text x="198" y="188" text-anchor="end" font-family="Inter, Segoe UI, Arial, sans-serif" font-size="11" fill="#52616b">MAE</text>
<rect x="210" y="176" width="250" height="16" rx="3" fill="#eef2f7"/>
<rect x="210" y="176" width="192.1" height="16" rx="3" fill="#9a7b35"/>
<text x="474" y="189" font-family="Inter, Segoe UI, Arial, sans-serif" font-size="12" font-weight="700" fill="#1f2933">1.178</text>
<line x1="40" y1="208" x2="500" y2="208" stroke="#d9e2ec" stroke-width="1"/>
<text x="40" y="244" font-family="Inter, Segoe UI, Arial, sans-serif" font-size="14" font-weight="700" fill="#1f2933">Tuned Decision Tree</text>
<text x="198" y="238" text-anchor="end" font-family="Inter, Segoe UI, Arial, sans-serif" font-size="11" fill="#52616b">R2</text>
<rect x="210" y="226" width="250" height="16" rx="3" fill="#eef2f7"/>
<rect x="210" y="226" width="195.9" height="16" rx="3" fill="#315f72"/>
<text x="474" y="239" font-family="Inter, Segoe UI, Arial, sans-serif" font-size="12" font-weight="700" fill="#1f2933">0.784</text>
<text x="198" y="265" text-anchor="end" font-family="Inter, Segoe UI, Arial, sans-serif" font-size="11" fill="#52616b">RMSE</text>
<rect x="210" y="253" width="250" height="16" rx="3" fill="#eef2f7"/>
<rect x="210" y="253" width="229.7" height="16" rx="3" fill="#a84f4f"/>
<text x="474" y="266" font-family="Inter, Segoe UI, Arial, sans-serif" font-size="12" font-weight="700" fill="#1f2933">1.409</text>
<text x="198" y="292" text-anchor="end" font-family="Inter, Segoe UI, Arial, sans-serif" font-size="11" fill="#52616b">MAE</text>
<rect x="210" y="280" width="250" height="16" rx="3" fill="#eef2f7"/>
<rect x="210" y="280" width="170.0" height="16" rx="3" fill="#9a7b35"/>
<text x="474" y="293" font-family="Inter, Segoe UI, Arial, sans-serif" font-size="12" font-weight="700" fill="#1f2933">1.042</text>
<line x1="40" y1="312" x2="500" y2="312" stroke="#d9e2ec" stroke-width="1"/>
<text x="40" y="348" font-family="Inter, Segoe UI, Arial, sans-serif" font-size="14" font-weight="700" fill="#1f2933">Tuned Random Forest</text>
<text x="40" y="369" font-family="Inter, Segoe UI, Arial, sans-serif" font-size="11" font-weight="700" fill="#3f7f5f">selected best</text>
<text x="198" y="342" text-anchor="end" font-family="Inter, Segoe UI, Arial, sans-serif" font-size="11" fill="#52616b">R2</text>
<rect x="210" y="330" width="250" height="16" rx="3" fill="#eef2f7"/>
<rect x="210" y="330" width="220.2" height="16" rx="3" fill="#315f72"/>
<text x="474" y="343" font-family="Inter, Segoe UI, Arial, sans-serif" font-size="12" font-weight="700" fill="#1f2933">0.881</text>
<text x="198" y="369" text-anchor="end" font-family="Inter, Segoe UI, Arial, sans-serif" font-size="11" fill="#52616b">RMSE</text>
<rect x="210" y="357" width="250" height="16" rx="3" fill="#eef2f7"/>
<rect x="210" y="357" width="170.7" height="16" rx="3" fill="#a84f4f"/>
<text x="474" y="370" font-family="Inter, Segoe UI, Arial, sans-serif" font-size="12" font-weight="700" fill="#1f2933">1.047</text>
<text x="198" y="396" text-anchor="end" font-family="Inter, Segoe UI, Arial, sans-serif" font-size="11" fill="#52616b">MAE</text>
<rect x="210" y="384" width="250" height="16" rx="3" fill="#eef2f7"/>
<rect x="210" y="384" width="127.7" height="16" rx="3" fill="#9a7b35"/>
<text x="474" y="397" font-family="Inter, Segoe UI, Arial, sans-serif" font-size="12" font-weight="700" fill="#1f2933">0.783</text>
<text x="40" y="462" font-family="Inter, Segoe UI, Arial, sans-serif" font-size="12" fill="#52616b">For RMSE and MAE, shorter bars are better. Random Forest has the strongest R2 and lowest errors.</text>
</svg>